<svg xmlns="http://www.w3.org/2000/svg" width="1920" height="1080" viewBox="0 0 1920 1080">
  <defs>
    <linearGradient id="bg" x1="0" y1="0" x2="1" y2="1">
      <stop offset="0%" stop-color="#0B0F14"/>
      <stop offset="100%" stop-color="#111a24"/>
    </linearGradient>
    <filter id="softShadow" x="-20%" y="-20%" width="140%" height="140%">
      <feDropShadow dx="0" dy="14" stdDeviation="22" flood-color="#000" flood-opacity="0.35"/>
    </filter>
  </defs>

  <rect width="1920" height="1080" fill="url(#bg)"/>
  <rect x="6" y="6" width="1908" height="1068" rx="18" fill="none" stroke="#D4AF37" stroke-opacity="0.35" stroke-width="4"/>

  <!-- big icon (embedded) -->
  <g transform="translate(120,90) scale(0.78)" filter="url(#softShadow)">
    <rect width="1024" height="1024" fill="none"/>
    <!-- include icon.svg content via copy/paste (simplified) -->
    <circle cx="512" cy="512" r="390" fill="#b71c1c"/>
    <circle cx="512" cy="512" r="305" fill="none" stroke="#ffffff" stroke-opacity="0.30" stroke-width="10"/>
    <circle cx="512" cy="512" r="220" fill="#121a24" stroke="#D4AF37" stroke-width="10"/>
    <g stroke="#ffffff" stroke-opacity="0.75" stroke-width="10" stroke-linecap="round">
      <line x1="512" y1="310" x2="512" y2="270"/>
      <line x1="512" y1="714" x2="512" y2="754"/>
      <line x1="714" y1="512" x2="754" y2="512"/>
      <line x1="310" y1="512" x2="270" y2="512"/>
      <line x1="655" y1="369" x2="680" y2="344"/>
      <line x1="369" y1="655" x2="344" y2="680"/>
      <line x1="655" y1="655" x2="680" y2="680"/>
      <line x1="369" y1="369" x2="344" y2="344"/>
    </g>
    <g stroke-linecap="round">
      <line x1="512" y1="512" x2="650" y2="445" stroke="#ffffff" stroke-opacity="0.9" stroke-width="18"/>
      <line x1="512" y1="512" x2="420" y2="330" stroke="#D4AF37" stroke-opacity="0.95" stroke-width="12"/>
    </g>
    <circle cx="512" cy="512" r="16" fill="#D4AF37"/>
  </g>

  <!-- right side UI blocks (no text) -->
  <g transform="translate(1120,170)" filter="url(#softShadow)">
    <g fill="#141c26" fill-opacity="0.92" stroke="#ffffff" stroke-opacity="0.10" stroke-width="2">
      <rect x="0" y="0" width="700" height="180" rx="26"/>
      <rect x="0" y="220" width="700" height="180" rx="26"/>
      <rect x="0" y="440" width="700" height="180" rx="26"/>
    </g>
    <g>
      <circle cx="90" cy="90" r="52" fill="#b71c1c" stroke="#D4AF37" stroke-width="6"/>
      <circle cx="90" cy="310" r="52" fill="#b71c1c" stroke="#D4AF37" stroke-width="6"/>
      <circle cx="90" cy="530" r="52" fill="#b71c1c" stroke="#D4AF37" stroke-width="6"/>
    </g>
    <g fill="#ffffff" fill-opacity="0.18">
      <rect x="170" y="62" width="460" height="22" rx="11"/>
      <rect x="170" y="102" width="520" height="22" rx="11"/>
      <rect x="170" y="142" width="420" height="22" rx="11"/>

      <rect x="170" y="282" width="500" height="22" rx="11"/>
      <rect x="170" y="322" width="460" height="22" rx="11"/>
      <rect x="170" y="362" width="380" height="22" rx="11"/>

      <rect x="170" y="502" width="520" height="22" rx="11"/>
      <rect x="170" y="542" width="420" height="22" rx="11"/>
      <rect x="170" y="582" width="460" height="22" rx="11"/>
    </g>
  </g>
</svg>
